<svg xmlns="http://www.w3.org/2000/svg" xmlns:xlink="http://www.w3.org/1999/xlink" width="500" zoomAndPan="magnify" viewBox="0 0 375 374.999991" height="500" preserveAspectRatio="xMidYMid meet" version="1.0"><defs><g/><clipPath id="d84517f981"><path d="M 74 13.480469 L 301 13.480469 L 301 356 L 74 356 Z M 74 13.480469 " clip-rule="nonzero"/></clipPath><clipPath id="a1d8279070"><path d="M 48.066406 318 L 327.066406 318 L 327.066406 361.480469 L 48.066406 361.480469 Z M 48.066406 318 " clip-rule="nonzero"/></clipPath><clipPath id="0a91cfe6a8"><path d="M 88.273438 28.453125 L 287.019531 28.453125 L 287.019531 320.203125 L 88.273438 320.203125 Z M 88.273438 28.453125 " clip-rule="nonzero"/></clipPath><clipPath id="884358a08b"><path d="M 154.558594 34.828125 C 164.714844 30.980469 176.332031 28.453125 187.699219 28.453125 C 199.070312 28.453125 210.007812 30.617188 220.089844 34.46875 C 220.304688 34.589844 220.519531 34.589844 220.734375 34.710938 C 258.597656 50.109375 286.484375 90.78125 287.019531 138.75 L 287.019531 320.203125 L 88.273438 320.203125 L 88.273438 138.882812 C 88.808594 90.539062 116.265625 49.871094 154.558594 34.828125 " clip-rule="nonzero"/></clipPath></defs><g clip-path="url(#d84517f981)"><path fill="#8d8d8d" d="M 74.335938 355.859375 L 74.335938 119.542969 C 74.335938 61.070312 121.769531 13.667969 180.277344 13.667969 L 194.851562 13.667969 C 253.363281 13.667969 300.792969 61.070312 300.792969 119.542969 L 300.792969 355.859375 " fill-opacity="1" fill-rule="nonzero"/></g><path fill="#8d8d8d" d="M 290.828125 333.230469 L 287.207031 333.230469 L 287.207031 120.769531 C 287.207031 69.339844 247.109375 29.054688 195.921875 29.054688 L 182.832031 29.054688 C 130.5 29.054688 87.925781 70.199219 87.925781 120.769531 L 87.925781 333.230469 L 84.300781 333.230469 L 84.300781 120.769531 C 84.300781 68.199219 128.503906 25.433594 182.832031 25.433594 L 195.921875 25.433594 C 221.785156 25.433594 245.769531 35.238281 263.457031 53.042969 C 281.109375 70.808594 290.828125 94.863281 290.828125 120.769531 Z M 290.828125 333.230469 " fill-opacity="1" fill-rule="nonzero"/><g clip-path="url(#a1d8279070)"><path fill="#8d8d8d" d="M 327.0625 361.292969 L 48.066406 361.292969 L 51.691406 318.746094 L 323.4375 318.746094 Z M 327.0625 361.292969 " fill-opacity="1" fill-rule="nonzero"/></g><path fill="#8d8d8d" d="M 229.949219 61.964844 L 231.832031 65.980469 L 243.210938 96.3125 L 211.117188 117.773438 L 251.917969 103.332031 L 254.023438 102.589844 L 253.253906 100.183594 L 242.675781 67.164062 L 278.046875 53.988281 C 274.753906 49.828125 271.175781 45.933594 267.300781 42.304688 L 234.441406 59.601562 Z M 229.949219 61.964844 " fill-opacity="1" fill-rule="nonzero"/><path fill="#8d8d8d" d="M 109.242188 286.980469 L 107.542969 282.886719 L 97.546875 252.074219 L 130.574219 232.078125 L 89.160156 244.664062 L 87.027344 245.316406 L 87.6875 247.75 L 96.765625 281.214844 L 74.335938 288.433594 L 74.335938 303.390625 L 104.648438 289.140625 Z M 109.242188 286.980469 " fill-opacity="1" fill-rule="nonzero"/><path fill="#8d8d8d" d="M 85.449219 121.875 L 87.972656 119.792969 L 107.570312 106.105469 L 128.800781 125.085938 L 110.992188 98.597656 L 110.074219 97.234375 L 108.496094 98.226562 L 86.832031 111.832031 L 76.691406 97.277344 C 75.785156 101.507812 75.144531 105.777344 74.765625 110.085938 L 82.9375 119.101562 Z M 85.449219 121.875 " fill-opacity="1" fill-rule="nonzero"/><g clip-path="url(#0a91cfe6a8)"><g clip-path="url(#884358a08b)"><path stroke-linecap="butt" transform="matrix(0.751107, 0, 0, 0.749067, 88.272728, 28.452711)" fill="none" stroke-linejoin="miter" d="M 88.250876 8.511137 C 101.772582 3.374541 117.239333 0.000552458 132.373242 0.000552458 C 147.512351 0.000552458 162.074188 2.889562 175.497081 8.031374 C 175.783117 8.193033 176.069153 8.193033 176.355189 8.354693 C 226.765148 28.91151 263.892631 83.208208 264.605121 147.246189 L 264.605121 389.484972 L 0.000944202 389.484972 L 0.000944202 147.423492 C 0.713434 82.884889 37.268845 28.593406 88.250876 8.511137 " stroke="#575757" stroke-width="8" stroke-opacity="1" stroke-miterlimit="4"/></g></g><g fill="#000000" fill-opacity="1"><g transform="translate(88.271447, 194.378633)"><g><path d="M 52.703125 1.828125 C 46.554688 1.828125 40.625 1.0625 34.90625 -0.46875 C 29.195312 -2.007812 24.128906 -4.367188 19.703125 -7.546875 C 15.273438 -10.722656 11.773438 -14.8125 9.203125 -19.8125 C 6.640625 -24.8125 5.359375 -30.523438 5.359375 -36.953125 C 5.359375 -40.453125 5.835938 -43.984375 6.796875 -47.546875 C 7.765625 -51.117188 9.40625 -54.617188 11.71875 -58.046875 C 14.039062 -61.472656 17.148438 -64.523438 21.046875 -67.203125 C 24.941406 -69.890625 29.40625 -71.925781 34.4375 -73.3125 C 39.46875 -74.707031 44.875 -75.40625 50.65625 -75.40625 C 53.375 -75.40625 56.125 -75.191406 58.90625 -74.765625 C 61.695312 -74.335938 64.234375 -73.765625 66.515625 -73.046875 C 68.796875 -72.335938 70.988281 -71.5 73.09375 -70.53125 C 75.207031 -69.5625 76.441406 -69.078125 76.796875 -69.078125 C 77.515625 -69.078125 78.617188 -69.5625 80.109375 -70.53125 C 81.609375 -71.5 83.859375 -73.160156 86.859375 -75.515625 L 88.359375 -75.515625 L 88.359375 -46.265625 L 86.4375 -46.265625 C 84.9375 -50.484375 82.953125 -54.394531 80.484375 -58 C 78.023438 -61.601562 75.296875 -64.515625 72.296875 -66.734375 C 69.585938 -68.734375 66.535156 -70.25 63.140625 -71.28125 C 59.742188 -72.3125 56.332031 -72.828125 52.90625 -72.828125 C 45.050781 -72.828125 39.125 -69.753906 35.125 -63.609375 C 31.132812 -57.472656 29.140625 -48.585938 29.140625 -36.953125 C 29.140625 -29.742188 30.101562 -23.367188 32.03125 -17.828125 C 33.957031 -12.296875 36.882812 -8.066406 40.8125 -5.140625 C 44.738281 -2.210938 49.453125 -0.75 54.953125 -0.75 C 57.234375 -0.75 59.640625 -0.960938 62.171875 -1.390625 C 64.710938 -1.816406 66.875 -2.460938 68.65625 -3.328125 C 70.007812 -3.960938 70.863281 -4.851562 71.21875 -6 C 71.582031 -7.144531 71.765625 -8.359375 71.765625 -9.640625 L 71.765625 -19.171875 C 71.765625 -23.097656 71.242188 -25.988281 70.203125 -27.84375 C 69.171875 -29.707031 67.265625 -30.992188 64.484375 -31.703125 L 58.796875 -33.203125 L 58.796875 -35.125 L 104 -35.125 L 104.109375 -33.203125 L 99.5 -31.59375 C 97.144531 -30.8125 95.503906 -29.523438 94.578125 -27.734375 C 93.648438 -25.953125 93.1875 -23.171875 93.1875 -19.390625 L 93.1875 0 L 91.6875 0 C 90.332031 -1.78125 89.007812 -3.296875 87.71875 -4.546875 C 86.4375 -5.796875 84.898438 -7.066406 83.109375 -8.359375 C 78.753906 -4.785156 74.148438 -2.191406 69.296875 -0.578125 C 64.441406 1.023438 58.910156 1.828125 52.703125 1.828125 Z M 86.015625 -59.984375 L 86.015625 -72.078125 L 85.90625 -72.078125 C 82.832031 -69.222656 80.40625 -67.546875 78.625 -67.046875 C 81.757812 -64.765625 84.222656 -62.410156 86.015625 -59.984375 Z M 37.28125 -2.140625 L 37.375 -2.25 C 34.238281 -3.894531 31.457031 -5.960938 29.03125 -8.453125 C 26.601562 -10.953125 24.582031 -13.738281 22.96875 -16.8125 C 21.363281 -19.882812 20.164062 -23.132812 19.375 -26.5625 C 18.59375 -29.988281 18.203125 -33.453125 18.203125 -36.953125 C 18.203125 -39.523438 18.414062 -42.09375 18.84375 -44.65625 C 19.28125 -47.226562 19.925781 -49.726562 20.78125 -52.15625 C 21.632812 -54.582031 22.703125 -56.867188 23.984375 -59.015625 C 25.273438 -61.160156 26.796875 -63.140625 28.546875 -64.953125 C 30.296875 -66.773438 31.9375 -68.1875 33.46875 -69.1875 C 35.007812 -70.1875 36.0625 -70.832031 36.625 -71.125 L 36.53125 -71.234375 C 34.457031 -70.660156 32.132812 -69.800781 29.5625 -68.65625 C 26.988281 -67.507812 24.46875 -66.046875 22 -64.265625 C 19.539062 -62.484375 17.257812 -60.285156 15.15625 -57.671875 C 13.050781 -55.066406 11.351562 -51.960938 10.0625 -48.359375 C 8.78125 -44.753906 8.140625 -40.953125 8.140625 -36.953125 C 8.140625 -31.171875 9.390625 -25.90625 11.890625 -21.15625 C 14.390625 -16.40625 17.851562 -12.441406 22.28125 -9.265625 C 26.707031 -6.085938 31.707031 -3.710938 37.28125 -2.140625 Z M 73.375 -4.8125 C 76.800781 -6.675781 80.15625 -9.035156 83.4375 -11.890625 L 83.4375 -22.921875 C 83.4375 -24.492188 83.5625 -25.992188 83.8125 -27.421875 C 84.0625 -28.847656 84.4375 -29.972656 84.9375 -30.796875 C 85.4375 -31.617188 85.9375 -32.171875 86.4375 -32.453125 L 86.4375 -32.5625 L 68.546875 -32.5625 L 68.546875 -32.453125 C 70.117188 -31.742188 71.28125 -30.90625 72.03125 -29.9375 C 72.78125 -28.96875 73.347656 -27.785156 73.734375 -26.390625 C 74.128906 -25.003906 74.328125 -22.597656 74.328125 -19.171875 L 74.328125 -9.640625 C 74.328125 -7.640625 73.972656 -6.066406 73.265625 -4.921875 Z M 73.375 -4.8125 "/></g></g></g><g fill="#000000" fill-opacity="1"><g transform="translate(177.546058, 249.927042)"><g><path d="M 52.703125 1.828125 C 46.554688 1.828125 40.625 1.0625 34.90625 -0.46875 C 29.195312 -2.007812 24.128906 -4.367188 19.703125 -7.546875 C 15.273438 -10.722656 11.773438 -14.8125 9.203125 -19.8125 C 6.640625 -24.8125 5.359375 -30.523438 5.359375 -36.953125 C 5.359375 -40.453125 5.835938 -43.984375 6.796875 -47.546875 C 7.765625 -51.117188 9.40625 -54.617188 11.71875 -58.046875 C 14.039062 -61.472656 17.148438 -64.523438 21.046875 -67.203125 C 24.941406 -69.890625 29.40625 -71.925781 34.4375 -73.3125 C 39.46875 -74.707031 44.875 -75.40625 50.65625 -75.40625 C 53.375 -75.40625 56.125 -75.191406 58.90625 -74.765625 C 61.695312 -74.335938 64.234375 -73.765625 66.515625 -73.046875 C 68.796875 -72.335938 70.988281 -71.5 73.09375 -70.53125 C 75.207031 -69.5625 76.441406 -69.078125 76.796875 -69.078125 C 77.515625 -69.078125 78.617188 -69.5625 80.109375 -70.53125 C 81.609375 -71.5 83.859375 -73.160156 86.859375 -75.515625 L 88.359375 -75.515625 L 88.359375 -46.265625 L 86.4375 -46.265625 C 84.9375 -50.484375 82.953125 -54.394531 80.484375 -58 C 78.023438 -61.601562 75.296875 -64.515625 72.296875 -66.734375 C 69.585938 -68.734375 66.535156 -70.25 63.140625 -71.28125 C 59.742188 -72.3125 56.332031 -72.828125 52.90625 -72.828125 C 45.050781 -72.828125 39.125 -69.753906 35.125 -63.609375 C 31.132812 -57.472656 29.140625 -48.585938 29.140625 -36.953125 C 29.140625 -29.742188 30.101562 -23.367188 32.03125 -17.828125 C 33.957031 -12.296875 36.882812 -8.066406 40.8125 -5.140625 C 44.738281 -2.210938 49.453125 -0.75 54.953125 -0.75 C 57.234375 -0.75 59.640625 -0.960938 62.171875 -1.390625 C 64.710938 -1.816406 66.875 -2.460938 68.65625 -3.328125 C 70.007812 -3.960938 70.863281 -4.851562 71.21875 -6 C 71.582031 -7.144531 71.765625 -8.359375 71.765625 -9.640625 L 71.765625 -19.171875 C 71.765625 -23.097656 71.242188 -25.988281 70.203125 -27.84375 C 69.171875 -29.707031 67.265625 -30.992188 64.484375 -31.703125 L 58.796875 -33.203125 L 58.796875 -35.125 L 104 -35.125 L 104.109375 -33.203125 L 99.5 -31.59375 C 97.144531 -30.8125 95.503906 -29.523438 94.578125 -27.734375 C 93.648438 -25.953125 93.1875 -23.171875 93.1875 -19.390625 L 93.1875 0 L 91.6875 0 C 90.332031 -1.78125 89.007812 -3.296875 87.71875 -4.546875 C 86.4375 -5.796875 84.898438 -7.066406 83.109375 -8.359375 C 78.753906 -4.785156 74.148438 -2.191406 69.296875 -0.578125 C 64.441406 1.023438 58.910156 1.828125 52.703125 1.828125 Z M 86.015625 -59.984375 L 86.015625 -72.078125 L 85.90625 -72.078125 C 82.832031 -69.222656 80.40625 -67.546875 78.625 -67.046875 C 81.757812 -64.765625 84.222656 -62.410156 86.015625 -59.984375 Z M 37.28125 -2.140625 L 37.375 -2.25 C 34.238281 -3.894531 31.457031 -5.960938 29.03125 -8.453125 C 26.601562 -10.953125 24.582031 -13.738281 22.96875 -16.8125 C 21.363281 -19.882812 20.164062 -23.132812 19.375 -26.5625 C 18.59375 -29.988281 18.203125 -33.453125 18.203125 -36.953125 C 18.203125 -39.523438 18.414062 -42.09375 18.84375 -44.65625 C 19.28125 -47.226562 19.925781 -49.726562 20.78125 -52.15625 C 21.632812 -54.582031 22.703125 -56.867188 23.984375 -59.015625 C 25.273438 -61.160156 26.796875 -63.140625 28.546875 -64.953125 C 30.296875 -66.773438 31.9375 -68.1875 33.46875 -69.1875 C 35.007812 -70.1875 36.0625 -70.832031 36.625 -71.125 L 36.53125 -71.234375 C 34.457031 -70.660156 32.132812 -69.800781 29.5625 -68.65625 C 26.988281 -67.507812 24.46875 -66.046875 22 -64.265625 C 19.539062 -62.484375 17.257812 -60.285156 15.15625 -57.671875 C 13.050781 -55.066406 11.351562 -51.960938 10.0625 -48.359375 C 8.78125 -44.753906 8.140625 -40.953125 8.140625 -36.953125 C 8.140625 -31.171875 9.390625 -25.90625 11.890625 -21.15625 C 14.390625 -16.40625 17.851562 -12.441406 22.28125 -9.265625 C 26.707031 -6.085938 31.707031 -3.710938 37.28125 -2.140625 Z M 73.375 -4.8125 C 76.800781 -6.675781 80.15625 -9.035156 83.4375 -11.890625 L 83.4375 -22.921875 C 83.4375 -24.492188 83.5625 -25.992188 83.8125 -27.421875 C 84.0625 -28.847656 84.4375 -29.972656 84.9375 -30.796875 C 85.4375 -31.617188 85.9375 -32.171875 86.4375 -32.453125 L 86.4375 -32.5625 L 68.546875 -32.5625 L 68.546875 -32.453125 C 70.117188 -31.742188 71.28125 -30.90625 72.03125 -29.9375 C 72.78125 -28.96875 73.347656 -27.785156 73.734375 -26.390625 C 74.128906 -25.003906 74.328125 -22.597656 74.328125 -19.171875 L 74.328125 -9.640625 C 74.328125 -7.640625 73.972656 -6.066406 73.265625 -4.921875 Z M 73.375 -4.8125 "/></g></g></g></svg>